PathFileType	4	(X/Y/Z)	s08c0202.trc
DataRate	CameraRate	NumFrames	NumMarkers	Units	OrigDataRate	OrigDataStartFrame	OrigNumFrames
200	200	5	50	mm	200	0	2000
Frame#	Time	racr			lacr			c7			jug			rlel			rdr			llel			ldr			s2			lic			ric			lasi			rasi			rpsi			lpsi			rgt			lgt			rth1			rth2			rth3			rth4			rlfc			rmfc			rsh1			rsh2			rsh3			rsh4			rlmal			rmmal			rcal			rtoe			rmt5			lth1			lth2			lth4			lth3			llfc			lmfc			llmal			lmmal			lcal			lmt5			lsh1			lsh2			lsh3			lsh4			ltoe			SBIKE			LBIKE			RBIKE			
		X1	Y1	Z1	X2	Y2	Z2	X3	Y3	Z3	X4	Y4	Z4	X5	Y5	Z5	X6	Y6	Z6	X7	Y7	Z7	X8	Y8	Z8	X9	Y9	Z9	X10	Y10	Z10	X11	Y11	Z11	X12	Y12	Z12	X13	Y13	Z13	X14	Y14	Z14	X15	Y15	Z15	X16	Y16	Z16	X17	Y17	Z17	X18	Y18	Z18	X19	Y19	Z19	X20	Y20	Z20	X21	Y21	Z21	X22	Y22	Z22	X23	Y23	Z23	X24	Y24	Z24	X25	Y25	Z25	X26	Y26	Z26	X27	Y27	Z27	X28	Y28	Z28	X29	Y29	Z29	X30	Y30	Z30	X31	Y31	Z31	X32	Y32	Z32	X33	Y33	Z33	X34	Y34	Z34	X35	Y35	Z35	X36	Y36	Z36	X37	Y37	Z37	X38	Y38	Z38	X39	Y39	Z39	X40	Y40	Z40	X41	Y41	Z41	X42	Y42	Z42	X43	Y43	Z43	X44	Y44	Z44	X45	Y45	Z45	X46	Y46	Z46	X47	Y47	Z47	X48	Y48	Z48	X49	Y49	Z49	X50	Y50	Z50	
0	0.0000	529.752147	1395.263966	-59.017532	525.156344	1415.194061	-412.380537	518.772855	1458.532405	-235.769638	494.252425	1303.868594	-229.526089	567.511530	1139.096597	18.553463	778.564818	930.919510	-60.323795	607.115987	1164.959323	-480.388540	780.598397	928.182675	-431.822206	-18.012101	1202.080119	-238.210557	151.505117	1167.030046	-381.464875	141.966884	1198.478196	-74.672992	170.142441	1114.135771	-348.417050	161.148661	1141.355623	-105.405816	13.981064	1243.132100	-187.113667	18.346485	1238.347960	-284.015853	58.869545	1112.541303	-29.568723	69.535975	1059.138738	-415.966476	199.748766	1026.283959	-24.279149	287.980561	1014.991091	-24.894842	356.255912	960.811578	-27.927589	300.627349	1046.828980	-40.543150	456.783077	895.027002	-49.752909	443.191757	888.102228	-158.004567	369.633721	799.536846	-23.939486	337.138832	718.542993	-46.845118	269.125119	665.581397	-56.393813	360.105840	709.268190	-82.670972	193.865438	575.848236	-69.575876	213.765546	595.988149	-156.668330	109.367729	556.352459	-115.085729	404.660063	514.620562	-108.384076	311.498914	495.093467	-42.594045	112.438798	927.124092	-432.682256	161.418421	854.436518	-428.287688	186.569248	866.345804	-445.611954	165.864399	765.637105	-425.039421	201.397034	643.888171	-396.799306	196.673386	619.927261	-294.418587	128.391259	233.207435	-400.102784	156.559025	252.423271	-315.386888	65.720390	207.274843	-359.281114	270.318471	144.256610	-420.474699	174.147068	519.686338	-425.283061	181.748834	435.616383	-407.792826	149.370573	354.020557	-411.751461	202.399243	436.465097	-374.761317	352.868785	172.752483	-351.740308	-145.905348	937.096700	-226.974602	10.799366	80.201181	-427.171508	10.951957	80.097850	-28.188274	
1	0.0050	529.740876	1395.261957	-59.092820	525.141304	1415.206679	-412.430688	518.753958	1458.513401	-235.834077	494.256974	1303.837907	-229.572704	567.495371	1139.101457	18.537023	778.579849	930.920739	-60.309052	607.088087	1164.939270	-480.419892	780.603282	928.174556	-431.849874	-18.042525	1202.075925	-238.201668	151.474912	1167.026593	-381.496394	141.997632	1198.511206	-74.653392	170.110656	1114.147382	-348.443059	161.157918	1141.354071	-105.415687	13.987057	1243.130638	-187.251176	18.317486	1238.356241	-284.018073	58.875939	1112.550367	-29.579025	69.515796	1059.145780	-415.970732	199.768879	1026.350109	-24.184041	287.981001	1015.020972	-24.883936	356.273814	960.846832	-27.916506	300.621411	1046.849522	-40.552988	456.782753	895.059861	-49.715975	442.329993	890.881109	-165.031550	369.660394	799.549588	-23.906668	337.197731	718.535545	-46.831502	269.196943	665.545362	-56.396520	360.773327	708.672752	-80.677257	193.990473	575.786667	-69.574178	213.874749	595.956305	-156.680311	109.495168	556.279735	-115.068610	404.786194	514.624052	-108.355277	311.618891	495.088110	-42.602749	112.457269	927.129078	-432.670628	161.450307	854.434912	-428.282953	186.667738	866.367449	-445.580053	165.925117	765.636923	-425.011762	201.462851	643.922301	-396.804945	196.735333	619.901627	-294.452931	128.292778	233.250465	-400.114776	156.489565	252.442111	-315.371948	65.612686	207.352358	-359.282842	270.188827	144.251415	-420.442832	174.162526	519.719950	-425.285125	181.730110	435.651943	-407.771355	149.320729	354.045252	-411.730080	202.364240	436.482457	-374.741199	352.752102	172.710662	-351.734777	-145.900791	937.093835	-226.981051	10.794374	80.175218	-427.174121	10.972442	80.081947	-28.208465	
2	0.0100	529.760555	1395.252661	-59.094869	525.125521	1415.203697	-412.477879	518.762810	1458.474855	-235.899806	494.245013	1303.778995	-229.622489	567.511893	1139.098117	18.504530	778.586479	930.925336	-60.299995	607.082569	1164.904167	-480.400102	780.596587	928.185918	-431.848850	-18.065614	1202.090227	-238.199437	151.448667	1167.021313	-381.513591	142.005541	1198.503556	-74.662666	170.101552	1114.165576	-348.483779	161.150556	1141.333582	-105.441138	13.984251	1243.141539	-187.247011	18.307356	1238.369064	-284.017490	58.864425	1112.579180	-29.564722	69.494665	1059.149408	-415.988341	199.766482	1026.406463	-24.175067	287.979215	1015.071040	-24.874877	356.253953	960.882861	-27.900706	300.602689	1046.882946	-40.541841	456.807099	895.088861	-49.708131	442.333262	890.911158	-164.974199	369.707078	799.550498	-23.886573	337.249226	718.536586	-46.831163	269.265775	665.541492	-56.378674	360.837466	708.681795	-80.641719	194.103209	575.759070	-69.568330	213.981699	595.916287	-156.677957	109.602990	556.196126	-115.074477	404.916538	514.648719	-108.347427	311.757355	495.079653	-42.599757	112.477339	927.144747	-432.644960	161.493975	854.451741	-428.243485	186.667738	866.367449	-445.580053	165.978391	765.670473	-425.013879	201.542767	643.945431	-396.791382	196.758971	619.953073	-294.398584	128.203633	233.280491	-400.089395	156.414933	252.458026	-315.396023	65.504970	207.419902	-359.293882	270.054190	144.252022	-420.431105	174.183717	519.753156	-425.284906	181.703822	435.687594	-407.780946	149.261774	354.094532	-411.730734	202.339596	436.493643	-374.725574	352.631054	172.696304	-351.727734	-145.904856	937.096623	-226.997044	10.806189	80.161040	-427.181284	10.951484	80.085098	-28.207621	
3	0.0150	529.735074	1394.945419	-59.796704	524.036555	1412.024987	-405.118811	518.766711	1458.429745	-235.962369	494.280649	1303.757277	-229.621273	567.255487	1138.867915	17.349473	778.588557	930.925524	-60.258098	606.480356	1166.060118	-484.278731	780.596531	928.174596	-431.879821	-18.069607	1202.107092	-238.211008	151.521541	1168.791805	-387.537634	141.983561	1198.388473	-74.659330	170.447363	1115.652046	-353.249657	161.152209	1141.333920	-105.444321	13.990575	1243.031069	-187.301681	18.283166	1238.370580	-284.025443	58.661119	1112.531439	-29.690105	69.843357	1058.999486	-414.998401	199.757138	1026.424123	-24.151995	287.964281	1015.123187	-24.865424	356.367187	960.910631	-28.066211	301.566836	1046.531084	-39.349222	456.772400	895.019506	-50.681790	442.356247	890.961203	-164.981456	369.842180	799.652108	-23.867447	335.759476	718.231201	-52.601368	269.375316	665.504918	-56.400939	360.251950	709.331469	-83.657897	194.321487	575.227057	-69.289198	213.879672	595.787978	-156.872334	109.012776	557.366206	-114.560481	405.044349	514.577943	-108.241317	311.022717	495.516646	-43.297707	112.608117	927.220150	-432.490635	161.604474	854.464736	-428.113219	188.302216	866.249277	-439.606978	166.463479	765.694321	-424.168278	205.375201	648.453037	-405.152089	195.706617	620.327057	-296.800834	128.744742	232.368986	-398.637835	154.452412	253.916784	-317.340535	65.366419	207.525877	-359.300510	269.004531	146.210488	-423.125264	174.643820	522.801242	-430.674254	181.744132	435.798161	-407.877195	147.994711	355.050631	-413.331210	201.945463	437.585355	-377.126102	351.483495	174.687706	-354.536395	-145.911401	937.105603	-226.996170	10.796351	80.198226	-427.168285	10.326106	78.791301	-30.343273	
4	0.0200	529.718998	1394.704075	-60.349144	524.022689	1412.056225	-405.175313	518.830193	1458.415081	-236.143365	494.345190	1303.582186	-229.667327	567.325174	1138.295729	17.537678	778.699722	930.636238	-59.973213	607.063441	1165.010646	-480.492768	780.634242	927.752962	-430.502093	-18.052485	1202.096622	-238.207904	151.344221	1166.989104	-381.511718	142.005460	1198.529767	-74.735379	183.539020	1119.542668	-361.918205	161.121959	1141.094326	-105.633806	13.884301	1243.056792	-187.346852	18.264775	1238.396641	-284.032524	58.666328	1112.588201	-29.676361	67.864968	1059.239787	-416.658289	199.717221	1026.570643	-24.079067	287.953927	1015.264085	-24.896671	356.231984	960.931304	-27.758099	301.604035	1046.659265	-39.458596	456.878159	894.562524	-51.399706	442.649808	890.199880	-163.145294	369.929206	799.704789	-23.962987	334.474615	718.040627	-56.352264	270.103670	663.961252	-60.420929	362.038278	708.654587	-82.679687	194.504602	575.284823	-69.389548	208.534451	598.735857	-161.860634	109.207854	557.264218	-114.601650	405.168871	514.642202	-108.276937	310.528434	495.809015	-43.816805	112.327337	927.011757	-432.754668	161.657407	854.449086	-428.109095	190.760975	866.082446	-430.644942	166.527263	765.603564	-424.106020	204.380303	649.108967	-406.104684	196.769988	620.175554	-294.025615	128.641503	232.466055	-398.710994	156.102120	252.586368	-315.440815	65.237723	207.595094	-359.274324	269.725176	144.079670	-420.467699	174.268014	522.474814	-430.069257	181.693420	435.890077	-407.646667	148.607476	354.319374	-411.652814	202.246435	436.716502	-374.678541	352.331329	172.518893	-351.801486	-146.525002	936.891958	-227.150308	10.828300	80.611227	-426.672347	9.872896	77.846105	-31.903677	
